<?xml version="1.0" encoding="UTF-8"?>
<svg id="Capa_1" data-name="Capa 1" xmlns="http://www.w3.org/2000/svg" viewBox="0 0 363.84 110.06">
  <defs>
    <style>
      .cls-1 {
        fill: #fdfefe;
        stroke-width: 0px;
      }
    </style>
  </defs>
  <path class="cls-1" d="m31.18,7.15c2.19,3.5,5.48,6.3,6.69,10.41-4.78,3.45-14.9,2.21-19.71-2.45-3.59-3.47-6.77-7.38-11.35-9.72C10.94.7,19.15-.25,26.68,2.72c6.84,2.69,11.43,7.68,14.81,15.29C45.26,8.36,50.87,2.15,60.13.22c3.47-.72,6.74.47,10.47,1.87-3.78,3.24-5.97,7.23-9.06,10.44-4.18,4.33-9.53,5.04-15.33,4.67-.2-2.42,1.04-4.27,1.16-6.33-3.87,4.04-5.08,12.53-2.87,22.42,8.18-14.28,19.83-21.35,35.94-19.42,5.56.67,10.66,2.74,14.6,6.84-.14,1.17-.99,1.22-1.62,1.45-4.01,1.42-7.35,3.8-10.47,6.67-6.15,5.68-13.08,9.69-21.86,9.13-4.18-.27-8.07-1.63-12.49-3.1,4.11-8.72,10.11-14.68,18.88-17.77-13.02.16-26.68,18.56-21.2,36.78,1.59-.2,2.34-1.59,3.39-2.48,6.55-5.49,13.63-9.39,22.59-7.16,3.46.86,6.64,2.37,9.63,5.4-6.37,2.72-11.13,7.78-17.69,9.4-5.32,1.32-10.27-.54-15.42-2.95-2.69,4.11-2.33,8.74-2.31,13.71,7.8,1.27,15.79.05,23.6,3.1-3.85,12.18-8.57,23.94-13.03,35.88-9.7,2.06-19.23,1.28-29.31.23-4.22-11.7-8.49-23.51-12.86-35.62,8.01-3.9,16.59-2.39,24.65-3.92.42-2.9-.79-4.97-2.43-7.18-6.82,5.94-14.06,6.62-21.88,2.67-2.2-1.11-4.61-1.8-7.16-2.77,3.88-5.68,9.25-7.48,15.67-7.45,6.39.03,11.48,3.07,16.33,6.93,3.85-11.01-.87-26.56-7.6-31.34,3.9,5.62,6.32,11.75,6.83,18.55-8.65,2.79-19.88-1.37-26.06-9.59-.75-1-1.44-2.05-2.07-3.13-1.52-2.62-2.91-5.3-4.48-7.89-1.53-2.53-4.02-4.16-6.66-6.53,8.24-3.57,16.08-3.65,23.78-.12,7.48,3.43,12.95,9.31,17.76,16.76.98-5.34.55-9.97-.39-14.43-1.02-4.84-2.7-9.57-5.76-13.63-1.07-1.42-2.12-2.84-3.86-3.53-.17-.24-.34-.45-.61-.1.09.15.17.3.26.45Zm4.36,54.53c.22.08.43.17.9.35-.22-.44-.32-.65-.42-.85-.22-.1-.45-.21-1.01-.46.29.54.4.75.52.96Zm-2.5-1.89c.3.22.6.43,1,.04-.1-.21-.21-.43-.32-.66-.26-.19-.52-.38-.78-.58-.38-.35-.76-.65-1.26-.2-.03.49.28.69.66.83.23.19.46.37.69.56Zm-2.86-31.62c.07.04.13.08.2.11-.08-.02-.16-.05-.24-.07-.03-.39-.1-.74-.62-.69-.09.54.32.56.67.65Zm21.09,24.95c-1.19.35-1.84.8-1.35,1.99.98-.17,1.45-.69,1.35-1.99Zm-19.47-23.89l-.15-.12-.04.17.19-.05Z"/>
  <path class="cls-1" d="m303.82,96.67c-4.15,1.11-8.1,1.21-12.63.01-1.33-12.36-.03-24.78-1.4-37.15-5.47,12.09-9.05,24.91-14.34,36.76-7.03,2.82-10.83,1.3-13.31-5.38-3.63-9.78-7.1-19.61-10.64-29.42-.31-.86-.69-1.69-1.44-2.5-.77,12.5-.49,25.01-1.51,37.4-3.4,1.42-7.86,1.55-12.27.32-.83-2.44-1.13-5.12-1.13-7.8-.02-22.53-.01-45.07.05-67.6.02-6.4,3.91-9.24,10.06-7.68,2.81.71,3.97,2.77,4.89,5.2,5.15,13.55,10.33,27.09,15.52,40.62,1.22,3.18,2.34,6.42,4.63,9.72,7.98-18.22,13.53-36.9,21.09-54.53,2.49-1.16,4.81-1.29,7.07-1.25,3.75.07,5.67,2.07,6.07,5.73.61,5.62.3,11.26.32,16.88.05,16.59.05,33.17,0,49.76-.01,3.62-.1,7.26-1.04,10.91Z"/>
  <path class="cls-1" d="m133.94,96.41c-4.04,1.41-7.98,1.45-11.96.39-1.09-2.04-1.12-4.14-1.12-6.2-.02-23.68-.02-47.35-.03-71.03,0-1.69.24-3.31,1-5.05,4.07-1.01,8.12-.76,12.75.44v33.87c5.33.46,10.07.32,15.14.11,1.29-11.48-.4-22.96,1.16-34.33,3.55-.67,6.73-.86,9.96-.49,2.02.23,2.98,1.27,3.14,3.21.09,1.04.26,2.08.26,3.12-.09,23.88-.19,47.76-.3,71.65,0,1.45-.01,2.93-.83,4.54-3.82,1.16-7.78,1.03-12.24.03-1.47-10.91-.06-21.95-.89-33.1-4.95-.85-9.69-.66-14.84-.44-1.48,11.11.23,22.19-1.21,33.28Z"/>
  <path class="cls-1" d="m178.82,55.27c0-7.71-.21-15.43.05-23.13.37-11.13,7.32-17.98,18.43-18.32,6.6-.2,13.15-.09,18.22,5.4,3.56,3.85,4.91,8.42,5.24,13.39,1.08,16.26.01,32.5-.64,48.73-.24,5.92-3.45,10.42-8.49,13.46-9.41,5.68-23.87,3.08-29.37-5.2-2.25-3.39-3.4-7.15-3.43-11.2-.05-7.71-.02-15.42-.02-23.14Zm28.72.14h.03c0-5.83-.02-11.66,0-17.49.01-2.33-.46-4.55-1.36-6.68-1.03-2.46-2.91-3.68-5.55-3.86-5.36-.35-8.51,2.53-8.63,9.05-.23,12.8-.04,25.6,0,38.41,0,.93.22,1.86.41,2.77.93,4.31,3.34,6.26,7.66,6.24,3.73-.02,5.89-1.85,6.8-6,.37-1.72.57-3.5.6-5.26.07-5.73.03-11.45.03-17.18Z"/>
  <path class="cls-1" d="m341.66,38.28c2.53-5.03,4.21-10.07,6.12-15.01.34-.87.77-1.72,1.02-2.62,2.21-8.02,6.85-8.49,14.99-4.78.27,2.53-.69,4.87-1.63,7.14-3.58,8.67-7.2,17.32-10.97,25.91-1.84,4.19-2.74,8.45-2.66,13.03.16,8.96.08,17.93.1,26.9,0,2.29-.1,4.57-.73,7-3.93,2.96-8.14,1.86-12.51.84-.56-3.55-.78-6.95-.79-10.38-.01-7.61-.18-15.23.06-22.83.17-5.36-1.04-10.28-3.18-15.12-3.66-8.3-7.14-16.67-10.66-25.03-.8-1.91-1.72-3.8-1.82-5.93,1.87-3.69,5.25-3.68,8.64-3.64,3.11.04,4.55,1.97,5.56,4.62,2.04,5.36,4.19,10.67,6.35,15.98.5,1.22.69,2.61,2.09,3.91Z"/>
</svg>