<?xml version="1.0" encoding="UTF-8"?>
<svg id="Capa_2" data-name="Capa 2" xmlns="http://www.w3.org/2000/svg" viewBox="0 0 173.33 263.7">
  <defs>
    <style>
      .cls-1 {
        fill: #fcfefe;
        stroke-width: 0px;
      }
    </style>
  </defs>
  <g id="Capa_1-2" data-name="Capa 1">
    <g>
      <path class="cls-1" d="m60.04,12.68c3.88,6.21,9.72,11.19,11.87,18.47-8.47,6.12-26.43,3.92-34.98-4.35-6.37-6.16-12.02-13.1-20.15-17.25C24.11,1.24,38.69-.44,52.05,4.82c12.14,4.78,20.29,13.63,26.29,27.13C85.03,14.83,94.97,3.82,111.41.39c6.15-1.28,11.95.84,18.58,3.32-6.71,5.76-10.59,12.83-16.08,18.52-7.41,7.68-16.92,8.95-27.21,8.3-.36-4.3,1.85-7.57,2.05-11.23-6.87,7.17-9.02,22.24-5.09,39.79,14.51-25.35,35.2-37.89,63.78-34.46,9.86,1.18,18.92,4.85,25.9,12.14-.25,2.08-1.75,2.17-2.88,2.57-7.11,2.53-13.05,6.74-18.58,11.84-10.91,10.07-23.2,17.2-38.8,16.2-7.42-.48-14.32-2.89-22.17-5.51,7.29-15.48,17.94-26.05,33.5-31.53-23.1.29-47.34,32.94-37.62,65.26,2.81-.36,4.14-2.82,6.02-4.39,11.63-9.74,24.18-16.66,40.08-12.71,6.13,1.52,11.78,4.2,17.09,9.58-11.31,4.82-19.75,13.8-31.4,16.69-9.43,2.33-18.23-.95-27.37-5.23-4.78,7.29-4.13,15.51-4.09,24.33,13.85,2.25,28.02.08,41.89,5.5-6.84,21.62-15.2,42.48-23.13,63.66-17.22,3.65-34.12,2.27-52.02.41-7.49-20.76-15.06-41.72-22.82-63.2,14.21-6.93,29.44-4.24,43.74-6.96.74-5.15-1.4-8.82-4.31-12.74-12.1,10.54-24.94,11.75-38.82,4.74-3.9-1.97-8.19-3.19-12.7-4.91,6.88-10.08,16.42-13.27,27.81-13.22,11.34.05,20.37,5.46,28.98,12.29,6.83-19.54-1.54-47.13-13.48-55.62,6.92,9.97,11.22,20.86,12.11,32.92-15.35,4.96-35.28-2.43-46.24-17.02-1.33-1.77-2.56-3.64-3.67-5.56-2.69-4.64-5.17-9.41-7.94-14-2.71-4.49-7.14-7.38-11.81-11.59,14.62-6.34,28.53-6.48,42.2-.21,13.28,6.1,22.98,16.52,31.52,29.74,1.74-9.47.98-17.7-.69-25.6-1.81-8.58-4.79-16.98-10.23-24.18-1.9-2.52-3.77-5.05-6.85-6.27-.29-.43-.6-.81-1.08-.17.15.26.31.53.46.8Zm7.73,96.76c.38.15.76.29,1.6.61-.39-.79-.56-1.15-.74-1.51-.4-.18-.8-.36-1.79-.81.51.95.72,1.33.93,1.71Zm-4.43-3.35c.53.4,1.06.77,1.78.08-.18-.37-.37-.76-.57-1.16-.46-.34-.92-.68-1.38-1.02-.67-.62-1.35-1.15-2.23-.36-.06.87.5,1.22,1.18,1.48.41.33.81.66,1.22.99Zm-5.07-56.11c.12.07.24.13.36.2-.14-.04-.29-.08-.43-.12-.05-.68-.17-1.31-1.11-1.23-.15.96.57,1,1.18,1.15Zm37.43,44.27c-2.11.61-3.26,1.43-2.39,3.54,1.75-.3,2.57-1.22,2.39-3.54Zm-34.56-42.4l-.27-.22-.07.3.34-.08Z"/>
      <path class="cls-1" d="m126.12,262.89c-2.86.77-5.59.84-8.7,0-.92-8.52-.02-17.08-.97-25.61-3.77,8.33-6.23,17.16-9.88,25.33-4.85,1.95-7.46.89-9.17-3.71-2.5-6.74-4.89-13.52-7.33-20.28-.21-.59-.47-1.16-.99-1.73-.53,8.62-.34,17.24-1.04,25.77-2.34.98-5.42,1.07-8.45.22-.57-1.68-.78-3.53-.78-5.37-.01-15.53,0-31.06.04-46.59.01-4.41,2.69-6.37,6.93-5.3,1.94.49,2.74,1.91,3.37,3.58,3.55,9.34,7.12,18.67,10.7,28,.84,2.19,1.61,4.42,3.19,6.7,5.5-12.55,9.32-25.43,14.54-37.58,1.71-.8,3.31-.89,4.87-.86,2.58.05,3.91,1.43,4.18,3.95.42,3.87.21,7.76.22,11.64.03,11.43.03,22.86,0,34.29,0,2.49-.07,5-.72,7.52Z"/>
      <path class="cls-1" d="m9.04,262.71c-2.79.97-5.5,1-8.24.27-.75-1.41-.77-2.85-.77-4.27C0,242.39,0,226.07,0,209.76c0-1.16.17-2.28.69-3.48,2.81-.7,5.6-.52,8.79.31v23.35c3.68.32,6.94.22,10.44.08.89-7.91-.28-15.82.8-23.66,2.45-.46,4.64-.59,6.87-.34,1.39.16,2.05.88,2.17,2.21.06.72.18,1.43.18,2.15-.06,16.46-.13,32.92-.21,49.38,0,1,0,2.02-.57,3.13-2.63.8-5.36.71-8.43.02-1.01-7.52-.04-15.13-.61-22.81-3.41-.59-6.68-.46-10.23-.3-1.02,7.66.16,15.29-.83,22.93Z"/>
      <path class="cls-1" d="m39.97,234.36c0-5.31-.15-10.63.03-15.94.26-7.67,5.04-12.39,12.7-12.62,4.55-.14,9.06-.06,12.56,3.72,2.45,2.65,3.39,5.81,3.61,9.23.74,11.2,0,22.4-.44,33.59-.16,4.08-2.38,7.18-5.85,9.28-6.49,3.92-16.45,2.12-20.24-3.58-1.55-2.34-2.34-4.93-2.36-7.72-.04-5.31-.01-10.63-.01-15.94Zm19.79.09h.02c0-4.02-.01-8.04,0-12.05,0-1.61-.32-3.13-.94-4.61-.71-1.7-2-2.54-3.83-2.66-3.69-.24-5.86,1.75-5.94,6.23-.16,8.82-.03,17.65,0,26.47,0,.64.15,1.28.28,1.91.64,2.97,2.3,4.32,5.28,4.3,2.57-.01,4.06-1.28,4.69-4.14.26-1.18.39-2.41.41-3.62.05-3.95.02-7.89.02-11.84Z"/>
      <path class="cls-1" d="m152.2,222.65c1.74-3.47,2.9-6.94,4.22-10.34.23-.6.53-1.19.7-1.81,1.53-5.53,4.72-5.85,10.33-3.3.19,1.74-.47,3.36-1.12,4.92-2.47,5.97-4.96,11.94-7.56,17.86-1.27,2.89-1.89,5.82-1.83,8.98.11,6.18.06,12.36.07,18.54,0,1.58-.07,3.15-.5,4.82-2.71,2.04-5.61,1.28-8.62.58-.39-2.44-.54-4.79-.54-7.15,0-5.25-.12-10.49.04-15.74.11-3.7-.72-7.08-2.19-10.42-2.52-5.72-4.92-11.49-7.35-17.25-.55-1.31-1.19-2.62-1.25-4.09,1.29-2.54,3.62-2.53,5.95-2.51,2.14.03,3.13,1.36,3.83,3.19,1.4,3.69,2.89,7.35,4.38,11.01.34.84.48,1.8,1.44,2.7Z"/>
    </g>
  </g>
</svg>