<?xml version="1.0" encoding="UTF-8"?>
<svg id="Capa_2" data-name="Capa 2" xmlns="http://www.w3.org/2000/svg" viewBox="0 0 168.63 195.31">
  <defs>
    <style>
      .cls-1 {
        fill: #fcfefe;
        stroke-width: 0px;
      }
    </style>
  </defs>
  <g id="Capa_1-2" data-name="Capa 1-2">
    <path class="cls-1" d="m55.33,12.67c3.88,6.21,9.72,11.19,11.87,18.47-8.47,6.12-26.43,3.92-34.98-4.35-6.37-6.16-12.02-13.1-20.15-17.25C19.4,1.23,33.98-.45,47.34,4.81c12.14,4.78,20.29,13.63,26.29,27.13C80.32,14.82,90.26,3.81,106.7.38c6.15-1.28,11.95.84,18.58,3.32-6.71,5.76-10.59,12.83-16.08,18.52-7.41,7.68-16.92,8.95-27.21,8.3-.36-4.3,1.85-7.57,2.05-11.23-6.87,7.17-9.02,22.24-5.09,39.79,14.51-25.35,35.2-37.89,63.78-34.46,9.86,1.18,18.92,4.85,25.9,12.14-.25,2.08-1.75,2.17-2.88,2.57-7.11,2.53-13.05,6.74-18.58,11.84-10.91,10.07-23.2,17.2-38.8,16.2-7.42-.48-14.32-2.89-22.17-5.51,7.29-15.48,17.94-26.05,33.5-31.53-23.1.29-47.34,32.94-37.62,65.26,2.81-.36,4.14-2.82,6.02-4.39,11.63-9.74,24.18-16.66,40.08-12.71,6.13,1.52,11.78,4.2,17.09,9.58-11.31,4.82-19.75,13.8-31.4,16.69-9.43,2.33-18.23-.95-27.37-5.23-4.78,7.29-4.13,15.51-4.09,24.33,13.85,2.25,28.02.08,41.89,5.5-6.84,21.62-15.2,42.48-23.13,63.66-17.22,3.65-34.12,2.27-52.02.41-7.49-20.76-15.06-41.72-22.82-63.2,14.21-6.93,29.44-4.24,43.74-6.96.74-5.15-1.4-8.82-4.31-12.74-12.1,10.54-24.94,11.75-38.82,4.74-3.9-1.97-8.19-3.19-12.7-4.91,6.88-10.08,16.42-13.27,27.81-13.22,11.34.05,20.37,5.46,28.98,12.29,6.83-19.54-1.54-47.13-13.48-55.62,6.92,9.97,11.22,20.86,12.11,32.92-15.35,4.96-35.28-2.43-46.24-17.02-1.33-1.77-2.56-3.64-3.67-5.56-2.69-4.64-5.17-9.41-7.94-14-2.71-4.49-7.14-7.38-11.81-11.59,14.62-6.34,28.53-6.48,42.2-.21,13.28,6.1,22.98,16.52,31.52,29.74,1.74-9.47.98-17.7-.69-25.6-1.81-8.58-4.79-16.98-10.23-24.18-1.9-2.52-3.77-5.05-6.85-6.27-.29-.43-.6-.81-1.08-.17.15.26.31.53.46.8h0Zm7.73,96.76c.38.15.76.29,1.6.61-.39-.79-.56-1.15-.74-1.51-.4-.18-.8-.36-1.79-.81.51.95.72,1.33.93,1.71Zm-4.43-3.35c.53.4,1.06.77,1.78.08-.18-.37-.37-.76-.57-1.16-.46-.34-.92-.68-1.38-1.02-.67-.62-1.35-1.15-2.23-.36-.06.87.5,1.22,1.18,1.48.41.33.81.66,1.22.99h0Zm-5.07-56.11c.12.07.24.13.36.2-.14-.04-.29-.08-.43-.12-.05-.68-.17-1.31-1.11-1.23-.15.96.57,1,1.18,1.15Zm37.43,44.27c-2.11.61-3.26,1.43-2.39,3.54,1.75-.3,2.57-1.22,2.39-3.54Zm-34.56-42.4l-.27-.22-.07.3s.34-.08.34-.08Z"/>
  </g>
</svg>