<?xml version="1.0" encoding="utf-8"?>
<!-- Generator: Adobe Illustrator 27.8.1, SVG Export Plug-In . SVG Version: 6.00 Build 0)  -->
<svg version="1.1" id="Capa_1" xmlns="http://www.w3.org/2000/svg" xmlns:xlink="http://www.w3.org/1999/xlink" x="0px" y="0px"
	 viewBox="0 0 50 50" style="enable-background:new 0 0 50 50;" xml:space="preserve">
<style type="text/css">
	.st0{fill:#211915;enable-background:new    ;}
	.st1{fill:#FFFFFF;}
</style>
<g>
	<path class="st0" d="M25,45.8c11.5,0,20.8-9.3,20.8-20.8S36.5,4.2,25,4.2S4.2,13.5,4.2,25S13.5,45.8,25,45.8z"/>
	<path class="st1" d="M28.2,17.6C27.6,17,26.6,17,26,17.6c-0.6,0.6-0.7,1.6-0.1,2.2c0,0,0.1,0.1,0.1,0.1l3.6,3.6H16.7
		c-0.9,0-1.6,0.7-1.6,1.6c0,0.9,0.7,1.6,1.6,1.6h12.9L26,30.1c-0.6,0.6-0.7,1.6-0.1,2.2c0.6,0.6,1.6,0.7,2.2,0.1
		c0,0,0.1-0.1,0.1-0.1l6.2-6.2c0.6-0.6,0.6-1.6,0-2.2C34.4,23.9,28.2,17.6,28.2,17.6z"/>
</g>
</svg>
